<?xml version="1.0" encoding="utf-8"?>
<!-- Generator: Adobe Illustrator 18.1.1, SVG Export Plug-In . SVG Version: 6.00 Build 0)  -->
<svg version="1.1" id="Layer_1" xmlns="http://www.w3.org/2000/svg" xmlns:xlink="http://www.w3.org/1999/xlink" x="0px" y="0px"
	 viewBox="0 0 15.4 18" enable-background="new 0 0 15.4 18" xml:space="preserve">
<path fill="#939ba9" d="M14.7,4.8l-4.1-4.1c-0.1-0.1-0.2-0.2-0.4-0.3v4.7H15C14.9,5,14.8,4.9,14.7,4.8z M10,6.4c-0.5,0-1-0.4-1-1V0H1
	C0.4,0,0,0.4,0,1V17c0,0.5,0.4,1,1,1h13.5c0.5,0,1-0.4,1-1V6.4H10z M11.6,13.8c0,0.2-0.1,0.3-0.3,0.3H4.2c-0.2,0-0.3-0.1-0.3-0.3
	v-0.6c0-0.2,0.1-0.3,0.3-0.3h7.1c0.2,0,0.3,0.1,0.3,0.3V13.8z M11.6,11.2c0,0.2-0.1,0.3-0.3,0.3H4.2c-0.2,0-0.3-0.1-0.3-0.3v-0.6
	c0-0.2,0.1-0.3,0.3-0.3h7.1c0.2,0,0.3,0.1,0.3,0.3V11.2z M11.6,8.7c0,0.2-0.1,0.3-0.3,0.3H4.2C4,9,3.9,8.9,3.9,8.7V8
	c0-0.2,0.1-0.3,0.3-0.3h7.1c0.2,0,0.3,0.1,0.3,0.3V8.7z"/>
</svg>
